<svg xmlns="http://www.w3.org/2000/svg" viewBox="0 0 1000 1000" xml:space="preserve"><switch><g><circle fill="#13333D" cx="500" cy="500" r="398"/><circle fill="#0F3D4E" cx="500" cy="500" r="344.3"/><g fill="#13333D"><path d="M361.6 360s0 .1 0 0c0 .6.1 1.1.1 1.6v.4c0 .4.1.8.1 1.2 0 .2 0 .4.1.5 0 .4.1.8.2 1.1 0 .2 0 .3.1.5.1.5.2 1.1.3 1.6.1.5.2.9.3 1.4.2.9.5 1.8.8 2.7.1.4.3.9.4 1.3 2 5.6 5 10.2 8.6 13.2.8.7 1.7 1.3 2.5 1.8.6.4 1.2.7 1.8.9.6.3 1.2.5 1.8.7.6.2 1.2.3 1.8.4 1.9.3 3.7.2 5.6-.4l.9-.3c.1 0 .2-.1.3-.1.2-.1.4-.2.6-.2.1-.1.2-.1.3-.2.2-.1.3-.2.5-.3.1-.1.2-.1.4-.2s.3-.2.5-.3c.1-.1.2-.2.4-.2.1-.1.3-.2.4-.3.1 0 .1-.1.2-.1 15.4 40.6 46.9 75.5 83.4 75.5s68-34.9 83.4-75.5c.1 0 .1.1.2.1.1.1.3.2.4.3.1.1.2.2.4.2.1.1.3.2.5.3.1.1.2.1.4.2s.3.2.5.3c.1.1.2.1.3.2.2.1.4.2.6.2.1 0 .2.1.3.1l.9.3c1.9.6 3.7.7 5.6.4.6-.1 1.2-.2 1.8-.4s1.2-.4 1.8-.7l1.8-.9c.9-.5 1.7-1.1 2.5-1.8 4.7-3.9 8.4-10.5 10.1-18.6.1-.5.2-1.1.3-1.6 0-.2 0-.3.1-.5.1-.4.1-.8.2-1.2 0-.2 0-.3.1-.5 0-.4.1-.8.1-1.2v-.4c0-.5.1-1 .1-1.5v-3.7c0-.5 0-.9-.1-1.4v-.2c0-.5-.1-1-.2-1.5-1.2-9.6-6-17.4-12.8-19.4-1.9-.6-3.9-.7-5.8-.3.5-57.5-41.4-103.3-93.3-103.3-51.5 0-93.3 46.2-93.3 103.2v.1c-1.9-.3-3.9-.2-5.8.3-6.9 2.1-11.6 9.8-12.8 19.4-.1.5-.1 1-.2 1.5v.2c0 .4-.1.9-.1 1.4V358.2c-.4.7-.4 1.2-.4 1.8zM734.2 476.6H614.3c-13.9 0-25.6 9.6-28.8 22.6l-13.7-4.4c-5.2-1.7-10.5 2.3-12 9-10.1 44.8-28.6 86-54.1 119.7l-15.4-76.6 6.9-9.4 7.7-10.5c.3-.3.5-.6.7-1 .1-.1.1-.2.2-.3.2-.2.3-.5.4-.7.1-.1.2-.3.2-.4.1-.2.2-.4.3-.7.1-.2.2-.3.2-.5.1-.2.2-.4.3-.7.1-.2.1-.4.2-.5.1-.2.1-.4.2-.7.1-.2.1-.4.2-.6.1-.2.1-.4.2-.6l.3-1.5c0-.1 0-.2.1-.3 0-.3.1-.6.1-.9v-.4c0-.3 0-.6.1-.9v-1.6c0-.3 0-.7-.1-1v-.1c-.1-1.6-.5-3.1-1-4.6-.4-1-.8-1.9-1.3-2.8l-12.9-18.1c-2.3-3.8-5.8-6.1-9.5-6.1h-20.3c-3.7 0-7.2 2.3-9.5 6.1l-12.9 18.1c-.5.9-1 1.9-1.3 2.8-.5 1.5-.9 3-1 4.6v.1c0 .3 0 .7-.1 1v1.6c0 .3 0 .6.1.9v.4c0 .3.1.6.1.9 0 .1 0 .2.1.3l.3 1.5c.1.2.1.4.2.6.1.2.1.4.2.6.1.2.1.4.2.7.1.2.1.4.2.5.1.2.2.4.3.7.1.2.1.3.2.5s.2.4.3.7c.1.1.2.3.2.4.1.2.3.5.4.7.1.1.1.2.2.3.2.3.5.7.7 1l7.7 10.5 6.9 9.4-11.2 56-4.1 20.6c-25.5-33.7-44-74.9-54.1-119.7-1.5-6.7-6.8-10.6-12-9l-78 25.2c-9.9 3.2-17.3 13.9-18.7 26.9l-13.3 124.2-.4 3.6c-.2 1.8-.3 3.6-.2 5.4.3 12.4 6 23.3 14.4 28.4 1.2.7 2.5 1.3 3.7 1.8.9.3 1.7.6 2.7.8 1.4.3 2.7.4 4.2.4h367.8c13.8 0 24.6-14.2 25-31.4 0-1.8 0-3.6-.2-5.4l-.2-1.9-.7-6.9h52.6c16.4 0 29.7-13.3 29.7-29.7V506.3c-.1-16.4-13.4-29.7-29.8-29.7z"/></g><g><path fill="#A44995" d="m504.9 507-23 31.4c-4.6 5.5-11.6 5.5-16.2 0l-23-31.4c-4.5-5.4-5.1-14.3-1.4-20.6l12.9-18.1c2.3-3.8 5.8-6.1 9.5-6.1H484c3.7 0 7.2 2.3 9.5 6.1l12.9 18.1c3.7 6.3 3.1 15.2-1.5 20.6z"/><path fill="#952584" d="m504.9 494.1-23 31.4c-4.6 5.5-11.6 5.5-16.2 0l-23-31.4c-1.2-1.4-2.1-3.1-2.7-4.9-2.1 6-1.1 13.2 2.7 17.8l23 31.4c4.6 5.5 11.6 5.5 16.2 0l23-31.4c3.9-4.6 4.9-11.8 2.7-17.8-.6 1.8-1.5 3.5-2.7 4.9z"/><path fill="#FFF" d="M398.4 336.1c3.1 15.2-2.3 30-12.3 33s-20.5-6.9-23.6-22.1c-3.1-15.2 2.3-30 12.3-33 9.8-3 20.4 6.8 23.6 22.1z"/><path fill="#DADADA" d="M386.1 359c-9.9 3-20.5-6.9-23.6-22.1-.2-1.2-.4-2.4-.6-3.5-.5 4.3-.4 8.9.6 13.5 3.1 15.2 13.7 25.1 23.6 22.1 9.1-2.8 14.5-15.5 12.8-29.4-1.2 9.6-5.9 17.4-12.8 19.4z"/><path fill="#FFF" d="M549.3 336.1c-3.1 15.2 2.3 30 12.3 33 9.9 3 20.5-6.9 23.6-22.1 3.1-15.2-2.3-30-12.3-33-9.9-3-20.5 6.8-23.6 22.1z"/><path fill="#DADADA" d="M585.2 336.9c-3.1 15.2-13.7 25.1-23.6 22.1-6.9-2.1-11.6-9.8-12.8-19.4-1.7 13.9 3.7 26.7 12.8 29.4 9.9 3 20.5-6.9 23.6-22.1 1-4.7 1.1-9.3.6-13.5-.2 1.2-.4 2.4-.6 3.5z"/><path fill="#FFF" d="M567.2 315.5c0 57-41.8 126.8-93.3 126.8s-93.3-69.7-93.3-126.8 41.8-103.2 93.3-103.2 93.3 46.2 93.3 103.2z"/><path fill="#DADADA" d="M473.8 422.3c-48.5 0-88.4-61.8-92.9-116.6-.3 3.3-.4 6.5-.4 9.9 0 57 41.8 126.8 93.3 126.8s93.3-69.7 93.3-126.8c0-3.3-.1-6.6-.4-9.9-4.5 54.8-44.4 116.6-92.9 116.6z"/><path fill="#A44995" d="M517.8 663.8h-88L462 503.3h23.6z"/><path fill="#952584" d="m517.8 663.8-16.2-80.9c-2.3 2.9-4.6 5.7-7 8.4l-14.1 16.3c-3.8 4.4-9.5 4.4-13.3 0L453 591.3c-2.4-2.7-4.7-5.6-7-8.4l-16.2 80.9h88z"/><path fill="#A44995" d="M448 266.3s13 24.3 50.4 36.7c20.2 6.7 47.7 9 68.7 10.6.5-57.5-41.4-103.3-93.3-103.3-51.5 0-93.3 46.2-93.3 103.2 0 0 20.7-3.4 39.1-15.3 18.4-11.9 28.4-31.9 28.4-31.9z"/><path fill="#952584" d="M457.3 515.3h33.1v11.6h-33.1z"/><path fill="#36A9E1" d="M668.8 526.9c-1.4-13.1-8.8-23.7-18.7-26.9l-78.2-25.2c-5.2-1.7-10.5 2.3-12 9-11.5 51.1-33.9 97.5-65.2 133.4l-14.1 16.3c-3.8 4.4-9.5 4.4-13.3 0L453 617.2c-31.3-36-53.7-82.3-65.2-133.4-1.5-6.7-6.8-10.6-12-9L297.6 500c-9.9 3.2-17.3 13.9-18.7 26.9l-13.7 127.8c-2.1 19.4 9.6 36.8 24.8 36.8h367.8c15.2 0 26.8-17.3 24.8-36.8l-13.8-127.8z"/><path fill="#0091C5" d="M681.3 644c-3.4 12.5-12.6 21.7-23.6 21.7H289.9c-11 0-20.2-9.2-23.6-21.7l-1.2 10.8c-2.1 19.4 9.6 36.8 24.8 36.8h367.8c15.2 0 26.8-17.3 24.8-36.8l-1.2-10.8z"/><g><path fill="#0091C5" d="M668.8 526.9c-1.4-13.1-8.8-23.7-18.7-26.9l-56.3-18.1c-5.6 5.4-9.1 13-9.1 21.4v119.9c0 16.4 13.3 29.7 29.7 29.7h68l-13.6-126z"/><path fill="#DADADA" d="M734.2 645.9H614.3c-16.4 0-29.7-13.3-29.7-29.7V496.3c0-16.4 13.3-29.7 29.7-29.7h119.9c16.4 0 29.7 13.3 29.7 29.7v119.9c0 16.4-13.3 29.7-29.7 29.7z"/><path fill="#FFF" d="M734.2 635.9H614.3c-16.4 0-29.7-13.3-29.7-29.7V486.3c0-16.4 13.3-29.7 29.7-29.7h119.9c16.4 0 29.7 13.3 29.7 29.7v119.9c0 16.4-13.3 29.7-29.7 29.7z"/><path fill="#413E91" d="M727.4 609.1H621.1c-5.4 0-9.8-4.4-9.8-9.8V493.1c0-5.4 4.4-9.8 9.8-9.8h106.2c5.4 0 9.8 4.4 9.8 9.8v106.2c0 5.5-4.3 9.8-9.7 9.8z"/><path fill="#2C3088" d="M727.4 483.4H621.1c-5.4 0-9.8 4.4-9.8 9.8v10c0-5.4 4.4-9.8 9.8-9.8h106.2c5.4 0 9.8 4.4 9.8 9.8v-10c0-5.4-4.3-9.8-9.7-9.8z"/></g><path fill="#2C3088" d="M661.2 510.3V539.4h-49.8V578.8h49.8V608l63.9-44.2v-9.3z"/><g><path fill="#DADADA" d="M611.4 538.7h55.4v30.1h-55.4z"/><path fill="#FFF" d="M611.4 529.4h55.4v30.1h-55.4z"/><path fill="#DADADA" d="M661.2 598v-88.5l63.9 35v9.3z"/><path fill="#FFF" d="M661.2 588.7v-88.4l63.9 44.2z"/></g></g></g></switch></svg>